<svg width="363" height="132" viewBox="0 0 363 132" fill="none" xmlns="http://www.w3.org/2000/svg">
<path d="M150.514 71.288C149.014 71.288 147.67 71.036 146.482 70.532C145.294 70.016 144.37 69.302 143.71 68.39C143.05 67.478 142.72 66.44 142.72 65.276C142.72 63.98 143.032 62.852 143.656 61.892C144.28 60.92 145.162 60.176 146.302 59.66C147.442 59.132 148.768 58.868 150.28 58.868C151.804 58.868 153.154 59.132 154.33 59.66C155.518 60.176 156.436 60.902 157.084 61.838C157.732 62.762 158.056 63.818 158.056 65.006C158.056 66.218 157.732 67.304 157.084 68.264C156.436 69.212 155.536 69.956 154.384 70.496C153.244 71.024 151.954 71.288 150.514 71.288ZM150.946 69.794C151.654 69.794 152.284 69.62 152.836 69.272C153.4 68.924 153.838 68.444 154.15 67.832C154.462 67.208 154.618 66.5 154.618 65.708C154.618 64.676 154.414 63.752 154.006 62.936C153.61 62.12 153.052 61.484 152.332 61.028C151.612 60.572 150.79 60.344 149.866 60.344C149.146 60.344 148.504 60.524 147.94 60.884C147.376 61.232 146.932 61.724 146.608 62.36C146.296 62.984 146.14 63.698 146.14 64.502C146.14 65.522 146.344 66.434 146.752 67.238C147.16 68.042 147.724 68.672 148.444 69.128C149.176 69.572 150.01 69.794 150.946 69.794ZM167.284 71.288C165.784 71.288 164.44 71.036 163.252 70.532C162.064 70.016 161.14 69.302 160.48 68.39C159.82 67.478 159.49 66.44 159.49 65.276C159.49 63.98 159.802 62.852 160.426 61.892C161.05 60.92 161.932 60.176 163.072 59.66C164.212 59.132 165.538 58.868 167.05 58.868C168.574 58.868 169.924 59.132 171.1 59.66C172.288 60.176 173.206 60.902 173.854 61.838C174.502 62.762 174.826 63.818 174.826 65.006C174.826 66.218 174.502 67.304 173.854 68.264C173.206 69.212 172.306 69.956 171.154 70.496C170.014 71.024 168.724 71.288 167.284 71.288ZM167.716 69.794C168.424 69.794 169.054 69.62 169.606 69.272C170.17 68.924 170.608 68.444 170.92 67.832C171.232 67.208 171.388 66.5 171.388 65.708C171.388 64.676 171.184 63.752 170.776 62.936C170.38 62.12 169.822 61.484 169.102 61.028C168.382 60.572 167.56 60.344 166.636 60.344C165.916 60.344 165.274 60.524 164.71 60.884C164.146 61.232 163.702 61.724 163.378 62.36C163.066 62.984 162.91 63.698 162.91 64.502C162.91 65.522 163.114 66.434 163.522 67.238C163.93 68.042 164.494 68.672 165.214 69.128C165.946 69.572 166.78 69.794 167.716 69.794ZM184.053 71.288C182.553 71.288 181.209 71.036 180.021 70.532C178.833 70.016 177.909 69.302 177.249 68.39C176.589 67.478 176.259 66.44 176.259 65.276C176.259 63.98 176.571 62.852 177.195 61.892C177.819 60.92 178.701 60.176 179.841 59.66C180.981 59.132 182.307 58.868 183.819 58.868C185.343 58.868 186.693 59.132 187.869 59.66C189.057 60.176 189.975 60.902 190.623 61.838C191.271 62.762 191.595 63.818 191.595 65.006C191.595 66.218 191.271 67.304 190.623 68.264C189.975 69.212 189.075 69.956 187.923 70.496C186.783 71.024 185.493 71.288 184.053 71.288ZM184.485 69.794C185.193 69.794 185.823 69.62 186.375 69.272C186.939 68.924 187.377 68.444 187.689 67.832C188.001 67.208 188.157 66.5 188.157 65.708C188.157 64.676 187.953 63.752 187.545 62.936C187.149 62.12 186.591 61.484 185.871 61.028C185.151 60.572 184.329 60.344 183.405 60.344C182.685 60.344 182.043 60.524 181.479 60.884C180.915 61.232 180.471 61.724 180.147 62.36C179.835 62.984 179.679 63.698 179.679 64.502C179.679 65.522 179.883 66.434 180.291 67.238C180.699 68.042 181.263 68.672 181.983 69.128C182.715 69.572 183.549 69.794 184.485 69.794ZM205.362 71C205.122 70.292 204.828 69.65 204.48 69.074C204.144 68.486 203.592 67.742 202.824 66.842L202.428 66.374L200.772 68.084V68.12C200.772 68.576 200.778 68.888 200.79 69.056C200.802 69.224 200.844 69.386 200.916 69.542C200.976 69.71 201.054 69.86 201.15 69.992C201.246 70.112 201.414 70.292 201.654 70.532L202.05 70.928V71H196.362V70.928L196.596 70.73C196.848 70.514 197.04 70.334 197.172 70.19C197.316 70.046 197.412 69.896 197.46 69.74C197.556 69.464 197.64 69.104 197.712 68.66C197.784 68.204 197.82 67.424 197.82 66.32V63.782C197.82 62.678 197.784 61.904 197.712 61.46C197.64 61.004 197.556 60.638 197.46 60.362C197.376 60.074 197.094 59.744 196.614 59.372L196.362 59.174V59.102H202.23V59.174L201.996 59.372C201.744 59.588 201.546 59.768 201.402 59.912C201.27 60.056 201.18 60.206 201.132 60.362C201.036 60.638 200.952 61.004 200.88 61.46C200.808 61.904 200.772 62.678 200.772 63.782V65.96L204.21 62.468C204.702 61.976 205.056 61.592 205.272 61.316C205.488 61.028 205.596 60.77 205.596 60.542C205.596 60.23 205.35 59.9 204.858 59.552L204.336 59.174V59.102H210.42V59.174L208.62 60.398C208.2 60.686 207.792 61.028 207.396 61.424L204.516 64.34L205.02 64.934L207.306 67.616C207.978 68.432 208.47 69.014 208.782 69.362C209.106 69.71 209.478 70.064 209.898 70.424L210.492 70.928V71H205.362ZM218.207 71.288C216.707 71.288 215.363 71.036 214.175 70.532C212.987 70.016 212.063 69.302 211.403 68.39C210.743 67.478 210.413 66.44 210.413 65.276C210.413 63.98 210.725 62.852 211.349 61.892C211.973 60.92 212.855 60.176 213.995 59.66C215.135 59.132 216.461 58.868 217.973 58.868C219.497 58.868 220.847 59.132 222.023 59.66C223.211 60.176 224.129 60.902 224.777 61.838C225.425 62.762 225.749 63.818 225.749 65.006C225.749 66.218 225.425 67.304 224.777 68.264C224.129 69.212 223.229 69.956 222.077 70.496C220.937 71.024 219.647 71.288 218.207 71.288ZM218.639 69.794C219.347 69.794 219.977 69.62 220.529 69.272C221.093 68.924 221.531 68.444 221.843 67.832C222.155 67.208 222.311 66.5 222.311 65.708C222.311 64.676 222.107 63.752 221.699 62.936C221.303 62.12 220.745 61.484 220.025 61.028C219.305 60.572 218.483 60.344 217.559 60.344C216.839 60.344 216.197 60.524 215.633 60.884C215.069 61.232 214.625 61.724 214.301 62.36C213.989 62.984 213.833 63.698 213.833 64.502C213.833 65.522 214.037 66.434 214.445 67.238C214.853 68.042 215.417 68.672 216.137 69.128C216.869 69.572 217.703 69.794 218.639 69.794ZM232.749 67.886L229.941 61.406V65.24C229.941 66.548 229.965 67.472 230.013 68.012C230.073 68.54 230.199 69.05 230.391 69.542C230.463 69.758 230.535 69.92 230.607 70.028C230.679 70.136 230.817 70.298 231.021 70.514L231.399 70.928V71H226.737V70.928L227.115 70.514C227.319 70.298 227.457 70.136 227.529 70.028C227.601 69.92 227.673 69.758 227.745 69.542C227.937 69.05 228.057 68.54 228.105 68.012C228.165 67.472 228.195 66.548 228.195 65.24V63.782C228.195 62.678 228.159 61.904 228.087 61.46C228.015 61.004 227.931 60.638 227.835 60.362C227.751 60.074 227.469 59.744 226.989 59.372L226.737 59.174V59.102H232.389L233.523 62.144L234.927 65.456L236.349 62.072L237.447 59.102H242.775V59.174L242.541 59.372C242.289 59.588 242.091 59.768 241.947 59.912C241.815 60.056 241.725 60.206 241.677 60.362C241.581 60.638 241.497 61.004 241.425 61.46C241.353 61.904 241.317 62.678 241.317 63.782V66.32C241.317 67.424 241.353 68.204 241.425 68.66C241.497 69.104 241.581 69.464 241.677 69.74C241.761 70.028 242.043 70.358 242.523 70.73L242.775 70.928V71H236.907V70.928L237.141 70.73C237.393 70.514 237.585 70.334 237.717 70.19C237.861 70.046 237.957 69.896 238.005 69.74C238.101 69.464 238.185 69.104 238.257 68.66C238.329 68.204 238.365 67.424 238.365 66.32V61.28L235.539 67.886L234.171 71.288H234.099L232.749 67.886ZM243.682 71V70.928L243.916 70.73C244.168 70.514 244.36 70.334 244.492 70.19C244.636 70.046 244.732 69.896 244.78 69.74C244.876 69.464 244.96 69.104 245.032 68.66C245.104 68.204 245.14 67.424 245.14 66.32V63.782C245.14 62.678 245.104 61.904 245.032 61.46C244.96 61.004 244.876 60.638 244.78 60.362C244.696 60.074 244.414 59.744 243.934 59.372L243.682 59.174V59.102H249.658V59.174L249.424 59.372C249.172 59.588 248.974 59.768 248.83 59.912C248.698 60.056 248.608 60.206 248.56 60.362C248.464 60.638 248.38 61.004 248.308 61.46C248.236 61.904 248.2 62.678 248.2 63.782V66.266L253.906 61.406C253.846 61.01 253.762 60.662 253.654 60.362C253.57 60.074 253.288 59.744 252.808 59.372L252.556 59.174V59.102H258.532V59.174L258.298 59.372C258.046 59.588 257.848 59.768 257.704 59.912C257.572 60.056 257.482 60.206 257.434 60.362C257.338 60.638 257.254 61.004 257.182 61.46C257.11 61.904 257.074 62.678 257.074 63.782V66.32C257.074 67.424 257.11 68.204 257.182 68.66C257.254 69.104 257.338 69.464 257.434 69.74C257.518 70.028 257.8 70.358 258.28 70.73L258.532 70.928V71H252.556V70.928L252.79 70.73C253.042 70.514 253.234 70.334 253.366 70.19C253.51 70.046 253.606 69.896 253.654 69.74C253.75 69.464 253.834 69.104 253.906 68.66C253.978 68.204 254.014 67.424 254.014 66.32V63.782V63.224L248.254 68.12C248.314 68.84 248.416 69.38 248.56 69.74C248.644 70.028 248.926 70.358 249.406 70.73L249.658 70.928V71H243.682ZM266.582 71V70.928L266.816 70.73C267.068 70.514 267.26 70.334 267.392 70.19C267.536 70.046 267.632 69.896 267.68 69.74C267.776 69.464 267.86 69.104 267.932 68.66C268.004 68.204 268.04 67.424 268.04 66.32V63.584C268.04 62.456 268.028 61.712 268.004 61.352C267.98 60.992 267.914 60.77 267.806 60.686C267.698 60.59 267.482 60.542 267.158 60.542H266.798C266.57 60.542 266.402 60.56 266.294 60.596C266.186 60.62 266.03 60.698 265.826 60.83C265.514 61.022 265.25 61.232 265.034 61.46C264.83 61.688 264.566 62.054 264.242 62.558L263.108 64.322H263.036L263.504 58.562L265.934 59.102H273.278L275.69 58.562L276.104 64.322H276.032L274.898 62.558C274.574 62.054 274.304 61.688 274.088 61.46C273.884 61.232 273.626 61.022 273.314 60.83C273.11 60.698 272.954 60.62 272.846 60.596C272.738 60.56 272.57 60.542 272.342 60.542H271.982C271.658 60.542 271.442 60.59 271.334 60.686C271.226 60.77 271.16 60.992 271.136 61.352C271.112 61.712 271.1 62.456 271.1 63.584V66.32C271.1 67.424 271.136 68.204 271.208 68.66C271.28 69.104 271.364 69.464 271.46 69.74C271.544 70.028 271.826 70.358 272.306 70.73L272.558 70.928V71H266.582ZM277.011 71V70.928L277.245 70.73C277.497 70.514 277.689 70.334 277.821 70.19C277.965 70.046 278.061 69.896 278.109 69.74C278.205 69.464 278.289 69.104 278.361 68.66C278.433 68.204 278.469 67.424 278.469 66.32V63.782C278.469 62.678 278.433 61.904 278.361 61.46C278.289 61.004 278.205 60.638 278.109 60.362C278.025 60.074 277.743 59.744 277.263 59.372L277.011 59.174V59.102H284.535C286.311 59.102 287.697 59.462 288.693 60.182C289.689 60.902 290.187 61.922 290.187 63.242C290.187 64.562 289.683 65.594 288.675 66.338C287.667 67.082 286.287 67.454 284.535 67.454H281.457C281.493 68.15 281.535 68.642 281.583 68.93C281.643 69.218 281.715 69.488 281.799 69.74C281.835 69.848 281.901 69.956 281.997 70.064C282.093 70.16 282.237 70.286 282.429 70.442L282.753 70.73L283.041 71H277.011ZM284.535 66.014C285.423 66.014 286.137 65.768 286.677 65.276C287.217 64.772 287.487 64.1 287.487 63.26C287.487 62.42 287.223 61.76 286.695 61.28C286.167 60.788 285.447 60.542 284.535 60.542H281.421V66.014H284.535ZM298.257 70.568C298.569 70.352 298.809 70.112 298.977 69.848C299.145 69.584 299.229 69.32 299.229 69.056C299.229 68.864 299.181 68.684 299.085 68.516L299.067 68.498H292.587C292.443 68.822 292.371 69.08 292.371 69.272C292.371 69.512 292.467 69.74 292.659 69.956C292.851 70.172 293.169 70.4 293.613 70.64L294.153 70.928V71H289.059V70.928L289.671 70.172C289.839 69.956 289.989 69.74 290.121 69.524C290.265 69.308 290.385 69.104 290.481 68.912L296.637 58.184H296.727C297.327 59.336 298.215 60.914 299.391 62.918L302.505 68.21C302.925 68.93 303.219 69.416 303.387 69.668C303.555 69.92 303.735 70.172 303.927 70.424C304.119 70.664 304.251 70.832 304.323 70.928V71H297.735V70.928L298.257 70.568ZM298.401 67.058L295.827 62.684L293.307 67.058H298.401ZM304.626 71V70.928L304.86 70.73C305.112 70.514 305.304 70.334 305.436 70.19C305.58 70.046 305.676 69.896 305.724 69.74C305.82 69.464 305.904 69.104 305.976 68.66C306.048 68.204 306.084 67.424 306.084 66.32V63.782C306.084 62.678 306.048 61.904 305.976 61.46C305.904 61.004 305.82 60.638 305.724 60.362C305.64 60.074 305.358 59.744 304.878 59.372L304.626 59.174V59.102H310.602V59.174L310.368 59.372C310.116 59.588 309.918 59.768 309.774 59.912C309.642 60.056 309.552 60.206 309.504 60.362C309.408 60.638 309.324 61.004 309.252 61.46C309.18 61.904 309.144 62.678 309.144 63.782V63.998H314.868V63.782C314.868 62.678 314.832 61.904 314.76 61.46C314.688 61.004 314.604 60.638 314.508 60.362C314.424 60.074 314.142 59.744 313.662 59.372L313.41 59.174V59.102H319.386V59.174L319.152 59.372C318.9 59.588 318.702 59.768 318.558 59.912C318.426 60.056 318.336 60.206 318.288 60.362C318.192 60.638 318.108 61.004 318.036 61.46C317.964 61.904 317.928 62.678 317.928 63.782V66.32C317.928 67.424 317.964 68.204 318.036 68.66C318.108 69.104 318.192 69.464 318.288 69.74C318.372 70.028 318.654 70.358 319.134 70.73L319.386 70.928V71H313.41V70.928L313.644 70.73C313.896 70.514 314.088 70.334 314.22 70.19C314.364 70.046 314.46 69.896 314.508 69.74C314.604 69.464 314.688 69.104 314.76 68.66C314.832 68.204 314.868 67.424 314.868 66.32V65.438H309.144V66.32C309.144 67.424 309.18 68.204 309.252 68.66C309.324 69.104 309.408 69.464 309.504 69.74C309.588 70.028 309.87 70.358 310.35 70.73L310.602 70.928V71H304.626ZM320.306 66.392C321.218 67.34 322.232 68.138 323.348 68.786C324.464 69.434 325.55 69.758 326.606 69.758C327.386 69.758 327.992 69.572 328.424 69.2C328.856 68.828 329.072 68.282 329.072 67.562C329.072 66.818 328.808 66.278 328.28 65.942C327.764 65.606 326.972 65.438 325.904 65.438H325.4L323.402 65.6V63.962H325.634C326.438 63.962 327.104 63.794 327.632 63.458C328.172 63.122 328.442 62.672 328.442 62.108C328.442 61.556 328.244 61.136 327.848 60.848C327.464 60.548 326.954 60.398 326.318 60.398C325.682 60.398 325.106 60.53 324.59 60.794C324.074 61.058 323.534 61.46 322.97 62L321.332 63.566L321.224 63.512L322.556 58.598L324.428 59.354C325.22 59.03 326.102 58.868 327.074 58.868C328.406 58.868 329.414 59.108 330.098 59.588C330.794 60.068 331.142 60.758 331.142 61.658C331.142 62.306 330.944 62.828 330.548 63.224C330.152 63.608 329.69 63.86 329.162 63.98V64.088C330.17 64.184 330.974 64.526 331.574 65.114C332.186 65.702 332.492 66.434 332.492 67.31C332.492 68.162 332.234 68.888 331.718 69.488C331.214 70.088 330.518 70.538 329.63 70.838C328.742 71.138 327.734 71.288 326.606 71.288C325.334 71.288 324.05 70.976 322.754 70.352L320.972 71.54L320.216 66.446L320.306 66.392ZM333.155 71V70.928L333.389 70.73C333.641 70.514 333.833 70.334 333.965 70.19C334.109 70.046 334.205 69.896 334.253 69.74C334.349 69.464 334.433 69.104 334.505 68.66C334.577 68.204 334.613 67.424 334.613 66.32V63.782C334.613 62.678 334.577 61.904 334.505 61.46C334.433 61.004 334.349 60.638 334.253 60.362C334.169 60.074 333.887 59.744 333.407 59.372L333.155 59.174V59.102H339.131V59.174L338.897 59.372C338.645 59.588 338.447 59.768 338.303 59.912C338.171 60.056 338.081 60.206 338.033 60.362C337.937 60.638 337.853 61.004 337.781 61.46C337.709 61.904 337.673 62.678 337.673 63.782V66.266L343.379 61.406C343.319 61.01 343.235 60.662 343.127 60.362C343.043 60.074 342.761 59.744 342.281 59.372L342.029 59.174V59.102H348.005V59.174L347.771 59.372C347.519 59.588 347.321 59.768 347.177 59.912C347.045 60.056 346.955 60.206 346.907 60.362C346.811 60.638 346.727 61.004 346.655 61.46C346.583 61.904 346.547 62.678 346.547 63.782V66.32C346.547 67.424 346.583 68.204 346.655 68.66C346.727 69.104 346.811 69.464 346.907 69.74C346.991 70.028 347.273 70.358 347.753 70.73L348.005 70.928V71H342.029V70.928L342.263 70.73C342.515 70.514 342.707 70.334 342.839 70.19C342.983 70.046 343.079 69.896 343.127 69.74C343.223 69.464 343.307 69.104 343.379 68.66C343.451 68.204 343.487 67.424 343.487 66.32V63.782V63.224L337.727 68.12C337.787 68.84 337.889 69.38 338.033 69.74C338.117 70.028 338.399 70.358 338.879 70.73L339.131 70.928V71H333.155ZM352.451 71V70.928L352.685 70.73C352.937 70.514 353.129 70.334 353.261 70.19C353.405 70.046 353.501 69.896 353.549 69.74C353.645 69.464 353.729 69.104 353.801 68.66C353.873 68.204 353.909 67.424 353.909 66.32V63.584C353.909 62.456 353.897 61.712 353.873 61.352C353.849 60.992 353.783 60.77 353.675 60.686C353.567 60.59 353.351 60.542 353.027 60.542H352.667C352.439 60.542 352.271 60.56 352.163 60.596C352.055 60.62 351.899 60.698 351.695 60.83C351.383 61.022 351.119 61.232 350.903 61.46C350.699 61.688 350.435 62.054 350.111 62.558L348.977 64.322H348.905L349.373 58.562L351.803 59.102H359.147L361.559 58.562L361.973 64.322H361.901L360.767 62.558C360.443 62.054 360.173 61.688 359.957 61.46C359.753 61.232 359.495 61.022 359.183 60.83C358.979 60.698 358.823 60.62 358.715 60.596C358.607 60.56 358.439 60.542 358.211 60.542H357.851C357.527 60.542 357.311 60.59 357.203 60.686C357.095 60.77 357.029 60.992 357.005 61.352C356.981 61.712 356.969 62.456 356.969 63.584V66.32C356.969 67.424 357.005 68.204 357.077 68.66C357.149 69.104 357.233 69.464 357.329 69.74C357.413 70.028 357.695 70.358 358.175 70.73L358.427 70.928V71H352.451Z" fill="white"/>
<path d="M25.1846 110.215L61.8162 110.221C61.0722 110.558 60.2874 110.766 59.5102 111.01L55.8961 112.143L36.6215 117.935L33.4491 116.102C30.5685 114.34 27.7645 112.397 25.1846 110.215Z" fill="#2732CE"/>
<path d="M68.1933 110.223L75.7393 110.212C77.0529 110.211 78.4792 110.101 79.7802 110.237L51.0913 123.616C50.1308 123.418 49.2001 123.091 48.2666 122.797C45.1955 121.829 42.2677 120.633 39.3193 119.349L68.1933 110.223Z" fill="#2732CE"/>
<path d="M89.7528 110.176L101.534 110.157L104.476 110.151C104.895 110.15 105.395 110.094 105.805 110.173C105.104 110.865 104.358 111.486 103.613 112.129C98.3518 116.667 92.289 119.974 85.7257 122.222C83.0841 123.127 80.389 123.88 77.6394 124.377C76.7688 124.584 75.8439 124.683 74.9573 124.811C70.7919 125.411 66.6138 125.554 62.4141 125.337C63.51 124.828 64.5433 124.209 65.594 123.614L69.5658 121.397L84.4997 113.003L87.8701 111.15C88.4882 110.813 89.1004 110.443 89.7528 110.176Z" fill="#2732CE"/>
<path d="M12.4105 93.7815C8.29476 85.6939 5.84902 76.6639 5.62052 67.5727C5.32354 55.7562 8.53432 43.8862 14.8168 33.8652C16.9181 30.5137 19.4496 27.3693 22.1698 24.5027C33.1081 12.9752 48.6225 6.231 64.4916 5.85522C77.3629 5.55042 90.2377 9.59623 100.682 17.0905C102.528 18.4153 104.357 19.7867 106.003 21.359C106.71 21.9169 107.357 22.5991 107.997 23.232C109.446 24.6661 110.837 26.1532 112.131 27.7297C116.177 32.6598 119.586 38.2148 121.891 44.1761C123.781 49.0611 124.94 54.2016 125.553 59.3949C126.283 65.577 125.942 71.9726 124.566 78.0417L124.465 78.0966C124.43 78.2092 124.404 78.3031 124.394 78.421C124.384 78.5408 124.327 78.6021 124.305 78.7089L124.304 78.8056C124.296 78.9144 124.252 78.9786 124.224 79.0795L124.143 79.4179C124.114 79.5243 124.112 79.6279 124.079 79.7401L123.966 80.1752C123.932 80.2948 123.927 80.3906 123.885 80.5136C123.839 80.6481 123.814 80.8089 123.772 80.9486C123.661 81.3217 123.526 81.733 123.45 82.1128C123.422 82.2561 123.451 82.1234 123.386 82.3021C123.329 82.4588 123.304 82.5879 123.225 82.7372C123.178 82.8265 123.162 82.9602 123.144 83.0595L123.047 83.1239C122.9 82.9679 122.93 82.8068 122.857 82.6159C122.794 82.4509 122.689 82.3043 122.599 82.1547C122.539 82.0559 122.565 81.9978 122.581 81.8905C122.609 81.6963 122.583 81.5997 122.532 81.4159C122.49 81.2641 122.576 81.2264 122.467 81.0614C122.463 80.894 122.446 80.8031 122.405 80.6425C122.376 80.5262 122.38 80.4414 122.34 80.3207L122.297 80.0994L122.254 79.9303C122.223 79.8188 122.216 79.7261 122.213 79.6115L122.149 79.5145C122.079 79.3859 122.059 79.1904 122.034 79.0473C122.005 78.8753 121.935 78.7283 121.858 78.5733L121.795 78.5478L121.613 78.1121C121.202 77.1137 120.714 76.143 120.097 75.2546C118.793 73.3764 116.903 71.6588 114.591 71.2393C114.618 71.1529 114.613 71.1982 114.604 71.1034L114.475 71.1357L114.398 71.0712C114.436 70.9299 114.448 70.9327 114.567 70.8456C114.466 70.645 114.265 70.5259 114.086 70.3997C113.517 69.9995 111.776 69.6259 111.125 69.3994C110.851 68.5047 111.248 66.5292 111.028 65.6233C110.93 65.2226 110.914 64.7678 110.875 64.3571C110.831 63.9048 110.742 63.461 110.659 63.0146C110.553 62.4444 110.625 61.7847 110.643 61.2042C110.423 61.0402 110.079 60.9731 109.816 60.9066C109.082 60.7207 108.326 60.6085 107.579 60.4928C107.225 60.4382 106.783 60.4186 106.451 60.295C105.963 60.1137 105.692 59.4167 105.215 59.3192C104.353 59.4173 103.418 59.3656 102.549 59.3589L97.8809 59.3639L97.8647 55.6354L97.9026 44.6187C97.6931 44.359 97.3416 44.1664 97.0677 43.9759C96.778 43.8588 96.5337 43.6531 96.3695 43.3886C96.2179 43.1446 96.109 42.8601 96.2002 42.5721C96.4404 41.8141 97.5471 41.562 98.1583 41.2395L98.2069 41.2134C97.6543 40.8623 97.1333 40.3303 96.6157 39.9146C95.5056 39.0232 94.2991 38.1765 93.0378 37.5135C92.8139 37.3959 91.0106 36.6433 91.0049 36.6349C90.9857 36.6066 90.9512 35.0472 90.9072 34.8074C90.6693 33.5107 90.09 32.3122 89.4319 31.1817C89.6276 30.7961 89.768 30.2493 90.0615 29.9399C90.282 29.1301 90.4171 28.1302 90.2735 27.3034L90.0962 26.5213C89.5563 24.8194 88.5387 23.7179 86.9612 22.911C85.8504 22.3428 84.4874 22.3048 83.3108 22.692L83.2153 22.7243C82.87 22.8387 82.5353 22.9858 82.2375 23.1972C81.8479 23.4736 81.5053 23.8287 81.1388 24.1358C81.0897 24.1769 80.9247 24.3455 80.8701 24.3603C80.8014 24.379 80.5626 24.3212 80.4854 24.3112L79.019 24.1003C77.6802 23.9267 76.4094 23.8586 75.0635 23.969C74.892 23.5328 74.775 23.091 74.5675 22.6669C74.2319 21.9818 73.6705 21.3377 73.088 20.8509C72.0836 20.0114 70.6429 19.6715 69.3569 19.7918C67.6072 19.9555 65.9462 20.9616 64.817 22.292C63.6456 23.7118 63.1629 25.149 63.3377 27.0073C63.3913 27.5777 63.5092 28.1444 63.6808 28.6908L64.0038 29.5951C64.0368 29.6829 64.1369 29.8641 64.1393 29.9501C64.1409 30.0048 64.0668 30.1094 64.0332 30.1485L63.9911 30.1932C59.5204 29.7323 55.0231 29.5219 50.5347 29.8025C47.8064 29.9732 44.9656 30.3081 42.3641 31.177C40.2669 31.8776 38.2828 32.9585 36.5647 34.3489C35.6795 35.0652 34.8833 35.9268 34.2768 36.8908C34.0232 37.2938 33.7926 37.7201 33.6106 38.1604C33.5872 38.2169 33.4219 38.6847 33.4027 38.6964C33.3636 38.7202 32.7415 38.6595 32.6518 38.6582C31.9868 38.6491 31.3079 38.684 30.651 38.7916C25.8237 39.582 21.7667 43.8291 21.2837 48.7101C21.1674 49.8843 21.2673 50.9192 21.4344 52.0791C18.5686 53.2468 16.2144 55.431 14.9898 58.3015C14.2474 60.0417 13.9132 62.1107 13.7421 63.9854C13.7261 67.5145 14.3462 70.946 16.5268 73.825C17.1397 74.6344 17.8959 75.3671 18.5915 76.1064C18.75 76.5772 18.7709 77.1277 18.816 77.6213C19.0196 79.8515 18.7315 82.0001 17.7353 84.0276C17.3024 84.9085 16.5544 85.9837 15.7501 86.5544C14.6651 87.3246 13.5439 87.5062 12.8496 88.7668C12.411 89.5633 12.33 90.4489 12.3973 91.3417C12.4499 92.0392 12.7569 93.1469 12.4105 93.7815Z" fill="url(#paint0_linear_987_343)"/>
<path d="M90.3132 29.7026L91.8965 30.2502L91.9599 30.285L94.8284 31.6939C97.9961 33.4407 100.871 35.8324 103.137 38.653C103.68 39.3288 104.43 40.1523 104.746 40.9513C103.954 40.8666 103.174 40.7187 102.378 40.6759C101.031 40.6033 99.7857 40.7757 98.4586 40.9761C97.906 40.625 97.385 40.093 96.8674 39.6773C95.7573 38.7859 94.5508 37.9392 93.2895 37.2763C93.0656 37.1586 91.2623 36.406 91.2566 36.3976C91.2374 36.3693 91.2029 34.8099 91.1589 34.5701C90.921 33.2735 90.3417 32.0749 89.6836 30.9444C89.8793 30.5588 90.0196 30.012 90.3132 29.7026Z" fill="#FEFEFE"/>
<path d="M98.458 40.9763C99.7851 40.7759 101.031 40.6035 102.377 40.6761C103.173 40.7189 103.954 40.8667 104.745 40.9514C105.323 41.0858 105.947 41.1869 106.49 41.424L106.581 41.4623C106.938 41.6189 107.254 41.9131 107.397 42.2814C107.476 42.4831 107.477 42.7837 107.373 42.9749C107.171 43.3475 106.52 43.6616 106.129 43.7528L105.966 43.7856C105.772 43.9288 105.536 44.071 105.383 44.2587L105.371 54.2062L105.391 57.1555C105.396 57.7858 105.371 58.4579 105.466 59.0821C104.605 59.1802 103.669 59.1285 102.8 59.1218L98.132 59.1268L98.1158 55.3983L98.1537 44.3816C97.9442 44.1219 97.5927 43.9293 97.3188 43.7388C97.0291 43.6217 96.7848 43.416 96.6206 43.1515C96.469 42.9075 96.3601 42.623 96.4513 42.335C96.6915 41.577 97.7982 41.3249 98.4094 41.0024L98.458 40.9763Z" fill="#B1C7FF"/>
<path d="M98.458 40.9763C99.7851 40.7759 101.031 40.6035 102.377 40.6761C103.173 40.7189 103.954 40.8667 104.745 40.9514C105.323 41.0858 105.947 41.1869 106.49 41.424L106.581 41.4623C106.938 41.6189 107.254 41.9131 107.397 42.2814C107.476 42.4831 107.477 42.7837 107.373 42.9749C107.171 43.3475 106.52 43.6616 106.129 43.7528L105.966 43.7856L104.184 43.7738L97.3188 43.7388C97.0291 43.6217 96.7848 43.416 96.6206 43.1515C96.469 42.9075 96.3601 42.623 96.4513 42.335C96.6915 41.577 97.7982 41.3249 98.4094 41.0024L98.458 40.9763Z" fill="#D8315B"/>
<path d="M104.185 43.7737L105.966 43.7854C105.772 43.9286 105.536 44.0708 105.384 44.2585L105.372 54.2061L105.391 57.1553C105.397 57.7857 105.371 58.4578 105.466 59.0819C104.605 59.18 103.67 59.1284 102.801 59.1216L102.806 43.8135L104.095 43.7821L104.185 43.7737Z" fill="#FEFEFE"/>
<path d="M13.9939 63.748L13.8806 63.6035C12.4964 61.7975 11.8946 59.4839 12.1945 57.2343C12.4346 55.4341 13.2711 53.6784 14.5301 52.373C15.09 51.7925 15.7282 51.3179 16.3702 50.8346C15.8907 49.7527 15.4777 48.6583 15.3066 47.4801C14.8855 44.5795 15.7382 41.4182 17.5053 39.0843C19.0762 37.0093 21.2461 35.5304 23.7512 34.8262C24.508 34.6135 25.2964 34.5059 26.0739 34.4016L26.5122 32.9332C27.6524 30.0905 29.8315 27.6374 32.6827 26.433C35.0244 25.4439 37.547 25.1865 40.0256 25.7845C40.977 26.0139 41.8732 26.3817 42.7782 26.7469C44.5055 24.0774 47.5232 22.0398 50.4658 20.9561C54.2363 19.5675 58.4571 19.5114 62.2595 20.8266C63.2237 21.1602 64.1425 21.6283 65.0687 22.0547C63.8973 23.4745 63.4146 24.9117 63.5894 26.77C63.643 27.3404 63.761 27.9071 63.9325 28.4535L64.2556 29.3578C64.2886 29.4456 64.3886 29.6268 64.391 29.7128C64.3926 29.7674 64.3185 29.8721 64.285 29.9112L64.2428 29.9559C59.7721 29.4949 55.2748 29.2846 50.7864 29.5652C48.0581 29.7359 45.2173 30.0708 42.6158 30.9397C40.5186 31.6403 38.5345 32.7212 36.8165 34.1116C35.9313 34.8279 35.135 35.6895 34.5285 36.6535C34.2749 37.0564 34.0443 37.4827 33.8623 37.9231C33.839 37.9795 33.6736 38.4473 33.6544 38.4591C33.6153 38.4829 32.9932 38.4222 32.9035 38.4209C32.2385 38.4118 31.5597 38.4467 30.9028 38.5543C26.0755 39.3447 22.0184 43.5917 21.5354 48.4728C21.4191 49.647 21.519 50.6818 21.6861 51.8417C18.8204 53.0095 16.4662 55.1937 15.2415 58.0642C14.4992 59.8044 14.1649 61.8733 13.9939 63.748Z" fill="#FEFEFE"/>
<path d="M64.9526 22.0548C66.0818 20.7243 67.7427 19.7182 69.4925 19.5545C70.7785 19.4342 72.2191 19.7741 73.2236 20.6136C73.8061 21.1005 74.3675 21.7445 74.703 22.4296C74.9106 22.8537 75.0276 23.2955 75.1991 23.7317C76.545 23.6214 77.8157 23.6894 79.1545 23.8631L80.621 24.0739C80.6982 24.0839 80.9369 24.1417 81.0056 24.1231C81.0603 24.1082 81.2253 23.9396 81.2744 23.8985C81.6409 23.5915 81.9835 23.2363 82.3731 22.9599C82.6708 22.7485 83.0056 22.6015 83.3508 22.487L83.4464 22.4548C84.623 22.0675 85.9859 22.1055 87.0967 22.6738C88.6743 23.4806 89.6919 24.5821 90.2317 26.284L90.4091 27.0661C90.5527 27.8929 90.4176 28.8928 90.197 29.7026C89.9035 30.012 89.7631 30.5588 89.5675 30.9444C90.2255 32.0749 90.8048 33.2735 91.0428 34.5701C91.0868 34.8099 91.1213 36.3693 91.1405 36.3976C91.1462 36.406 92.9494 37.1586 93.1734 37.2763C94.4347 37.9392 95.6411 38.7859 96.7513 39.6773C97.2688 40.093 97.7899 40.625 98.3425 40.9761L98.2939 41.0022C97.6826 41.3247 96.576 41.5768 96.3358 42.3348C96.2445 42.6228 96.3535 42.9073 96.5051 43.1513C96.6693 43.4158 96.9136 43.6215 97.2032 43.7386C97.4771 43.9291 97.8287 44.1217 98.0382 44.3814L98.0003 55.3982L98.0165 59.1266L102.685 59.1216C103.554 59.1283 105.35 59.0819 105.35 59.0819C105.35 59.0819 105.917 59.679 106.405 59.8604C106.737 59.984 107.361 60.201 107.714 60.2555C108.462 60.3712 109.218 60.4834 109.952 60.6693C110.214 60.7358 110.559 60.8029 110.778 60.9669C110.76 61.5474 110.688 62.2071 110.794 62.7773C110.877 63.2237 110.966 63.6675 111.01 64.1198C111.05 64.5305 111.042 64.9927 111.139 65.3933C111.36 66.2992 111.432 68.551 111.432 69.3767C111.546 69.7479 112.311 69.2107 112.507 69.5301C113.158 69.7566 113.653 69.7622 114.221 70.1624C114.401 70.2886 114.602 70.4077 114.703 70.6083C114.583 70.6955 114.572 70.6926 114.534 70.8339L114.611 70.8984L114.74 70.8661C114.749 70.9609 114.754 70.9156 114.726 71.002C117.038 71.4215 118.929 73.1391 120.233 75.0173C120.85 75.9057 121.337 76.8764 121.749 77.8748L121.931 78.3105L121.994 78.336C122.071 78.4911 122.141 78.638 122.17 78.81C122.194 78.9531 122.215 79.1486 122.284 79.2773L122.349 79.3742C122.352 79.4888 122.359 79.5815 122.389 79.693L122.433 79.8621L122.476 80.0835C122.515 80.2041 122.511 80.2889 122.541 80.4052C122.582 80.5658 122.598 80.6567 122.603 80.8241C122.712 80.9891 122.625 81.0268 122.668 81.1786C122.719 81.3625 122.745 81.459 122.716 81.6533C122.7 81.7605 122.675 81.8187 122.735 81.9174C122.825 82.0671 122.93 82.2136 122.993 82.3786C123.065 82.5695 123.036 82.7307 123.183 82.8866L123.28 82.8222C123.298 82.7229 123.313 82.5893 123.36 82.4999C123.439 82.3507 123.464 82.2215 123.521 82.0649C123.586 81.8861 123.557 82.0189 123.586 81.8755C123.662 81.4958 123.797 81.0844 123.908 80.7114C123.949 80.5716 123.974 80.4109 124.021 80.2763C124.063 80.1533 124.067 80.0575 124.101 79.9379L124.214 79.5029C124.248 79.3906 124.25 79.2871 124.279 79.1806L124.359 78.8422C124.388 78.7413 124.431 78.6771 124.44 78.5683L124.44 78.4716C124.463 78.3649 124.519 78.3035 124.529 78.1838C124.539 78.0658 124.566 77.972 124.601 77.8593L124.701 77.8044L123.86 81.3128C123.703 81.8647 123.486 82.4081 123.344 82.9617C123.229 83.4082 123.263 83.8846 123.154 84.3403C122.936 85.2458 122.584 86.0718 122.308 86.9518C122.259 87.2673 121.855 88.0321 121.942 88.2591L122.931 88.2288L122.946 90.7552L117.53 90.7515C118.894 92.8173 119.658 94.9728 119.166 97.4822C118.835 99.1691 118.075 100.444 116.997 101.755L122.94 101.712L122.932 105.601L126.781 108.033L5.09473 108.053C6.05837 107.246 7.20448 106.571 8.23072 105.835C8.30135 105.785 8.58274 105.633 8.60921 105.58C8.61137 105.576 8.62582 105.434 8.62732 105.413L8.66237 101.766L12.5132 101.782L12.7855 95.8277L12.8403 94.7138C12.8481 94.5848 12.9022 94.3741 12.8818 94.2573C12.8467 94.0568 12.6379 93.7393 12.5461 93.5442C12.8925 92.9096 12.5855 91.8019 12.5329 91.1044C12.4656 90.2116 12.5466 89.326 12.9852 88.5295C13.6795 87.2689 14.8007 87.0873 15.8857 86.3171C16.6899 85.7464 17.438 84.6712 17.8708 83.7903C18.867 81.7628 19.1551 79.6142 18.9516 77.384C18.9065 76.8904 18.8856 76.3399 18.727 75.8691C18.0315 75.1298 17.2753 74.3971 16.6623 73.5877C14.4818 70.7087 13.8617 67.2773 13.8777 63.7481C14.0488 61.8734 14.383 59.8044 15.1254 58.0642C16.35 55.1937 18.7042 53.0095 21.5699 51.8418C21.4029 50.6819 21.303 49.647 21.4192 48.4728C21.9023 43.5918 25.9593 39.3447 30.7866 38.5544C31.4435 38.4467 32.1223 38.4118 32.7874 38.421C32.8771 38.4222 33.4992 38.483 33.5382 38.4591C33.5574 38.4474 33.7228 37.9796 33.7462 37.9231C33.9282 37.4828 34.1588 37.0565 34.4123 36.6535C35.0189 35.6896 35.8151 34.8279 36.7003 34.1116C38.4184 32.7212 40.4025 31.6404 42.4997 30.9398C45.1011 30.0708 47.942 29.7359 50.6703 29.5652C55.1587 29.2846 59.6559 29.495 64.1267 29.9559L64.1688 29.9112C64.2023 29.8721 64.2764 29.7675 64.2749 29.7128C64.2724 29.6268 64.1724 29.4456 64.1394 29.3578L63.8164 28.4535C63.6448 27.9071 63.5269 27.3404 63.4732 26.77C63.2984 24.9117 63.7812 23.4745 64.9526 22.0548Z" fill="#140C9C"/>
<path d="M106.055 94.813C105.962 94.3113 106.032 93.9159 106.239 93.4571C106.772 92.2781 107.731 91.2159 108.951 90.7305C109.342 90.575 109.726 90.4819 110.138 90.4088C111.482 90.1709 112.775 90.4846 113.873 91.2833C114.746 91.9188 115.312 92.8044 115.655 93.812C115.745 94.0753 115.863 94.3632 115.895 94.6411C115.905 94.7293 115.885 94.806 115.866 94.8908C115.668 94.3632 115.544 93.8631 115.269 93.3631C114.633 92.2068 113.466 91.1785 112.186 90.8203C110.928 90.4685 109.582 90.7096 108.467 91.3607C107.144 92.1326 106.44 93.3661 106.055 94.813Z" fill="#020E76" fill-opacity="0.6"/>
<path d="M84.9065 90.9468L85.0135 90.8789L85.07 90.9022C85.196 90.9498 85.0955 90.9109 85.2709 90.9437C85.4346 90.9743 85.5204 91.0595 85.658 91.1367L85.7869 91.1854L85.8514 91.2334L85.9642 91.266C86.0491 91.2948 86.0995 91.3342 86.1737 91.3788L86.2703 91.4274L86.3348 91.5234L86.4311 91.5238L86.9149 91.8786C87.0351 91.9698 87.752 92.6976 87.7528 92.7809C87.8538 92.882 87.9451 92.9219 87.9461 93.0703L87.9884 93.1105C88.0839 93.2062 88.1386 93.2556 88.1395 93.3926L88.1828 93.447C88.2515 93.5385 88.2258 93.5028 88.2775 93.6063C88.33 93.7115 88.297 93.6671 88.3966 93.7471L88.3973 93.8438C88.4226 94.02 88.5432 94.1832 88.5907 94.3594C88.6197 94.467 88.6578 94.5562 88.7073 94.6556C88.7764 94.7946 88.741 94.6944 88.7518 94.8428C88.7585 94.934 88.7907 95.0132 88.8189 95.0985C88.8561 95.2112 88.8481 95.276 88.832 95.3906L88.8803 95.4712L88.8807 95.5518C88.8981 95.9753 88.9311 96.3851 88.8964 96.8086L88.9123 97.0986L88.8478 97.1631V97.4209L88.7518 97.4854L88.7834 97.6787L88.6873 97.7432L88.7189 97.8721L88.6229 97.9365L88.6545 98.0654L88.59 98.1299L88.6068 98.2749C88.6511 98.1838 88.6824 98.1142 88.7024 98.0144C88.7308 97.8735 88.8223 97.8063 88.8485 97.6465C88.8664 97.5369 88.8901 97.4775 88.929 97.3726C88.983 97.2269 89.0056 97.0712 89.0167 96.9175C89.0408 96.5791 88.9975 97.0341 89.074 96.7119C89.1261 96.4926 89.1167 95.4869 89.0096 95.3262C89.0047 95.159 88.9988 95.0663 88.9451 94.9072C88.8637 94.6654 88.8343 94.4282 88.7266 94.1912C88.677 94.0821 88.696 94.133 88.6722 94.0381C88.6286 93.8632 88.5143 93.6192 88.4295 93.457L88.4752 93.3941C89.2158 94.8345 89.3779 96.3632 88.8821 97.9158C88.4173 99.3715 87.3792 100.749 85.9964 101.447C84.8088 102.046 83.5312 102.2 82.2429 101.816C81.8494 101.699 81.4382 101.458 81.0174 101.481L81.1141 101.385C81.2507 101.392 81.3075 101.406 81.4364 101.449L82.1131 101.675L82.2077 101.707L82.5804 101.82C82.7149 101.86 82.9036 101.868 83.0477 101.9C83.2632 101.949 83.4638 101.834 83.66 101.965L83.7573 101.933C84.0056 101.861 84.3576 101.972 84.5623 101.836L84.6762 101.831C85.1611 101.799 85.9583 101.396 86.367 101.127L86.4587 101.068C86.5838 100.984 86.6919 100.887 86.8187 100.806C87.0577 100.654 87.3865 100.329 87.5111 100.08L87.5594 99.9984C87.4386 100.039 87.4845 100.003 87.4239 100.083C87.296 100.254 87.2115 100.33 87.0431 100.45L86.8504 100.643L86.7537 100.644L86.5926 100.836L86.4959 100.837L86.3992 100.965L86.3341 100.966C86.2478 101.052 86.248 101.062 86.1408 101.095L85.9642 101.191L85.8514 101.224L85.7869 101.272L85.658 101.288L85.4647 101.385L85.3358 101.417L85.2713 101.481L85.1585 101.465C84.959 101.551 84.8316 101.571 84.6268 101.61L84.5543 101.642C84.4422 101.687 84.358 101.679 84.2401 101.675L84.1756 101.723C83.8156 101.707 83.4206 101.752 83.0799 101.674L82.8866 101.658C82.7727 101.646 82.7023 101.624 82.5965 101.578L82.4032 101.61L82.3387 101.545C82.1767 101.545 82.1924 101.547 82.0487 101.481C81.8821 101.404 81.7051 101.376 81.533 101.288L81.4686 101.352L81.2756 101.255L81.2595 101.127L81.2496 101.059C81.2264 100.821 81.2671 100.575 81.2509 100.333C81.239 100.158 81.1751 100.023 81.1785 99.8379L81.1147 99.7734C81.1144 99.6311 81.1542 99.5561 81.0503 99.4512L81.0037 99.2395C80.9771 99.1048 81.0009 99.2102 80.9214 99.0645L80.7925 98.8066L80.76 98.7261L80.7271 98.6643C80.6794 98.5691 80.697 98.6052 80.6729 98.4738L80.7325 98.4101C81.0201 98.7546 81.1971 99.3425 81.279 99.7765L81.3004 99.8963C81.3732 100.291 81.3532 100.677 81.3393 101.076C82.3651 101.512 83.5888 101.783 84.6934 101.496L84.8201 101.463C85.8076 101.207 86.6822 100.697 87.3724 99.9409C88.4088 98.8055 88.873 97.3388 88.7939 95.8182C88.7072 95.0684 88.5521 94.3917 88.2052 93.7164C87.5188 92.3795 86.3401 91.4012 84.9065 90.9468Z" fill="#020E76" fill-opacity="0.6"/>
<path d="M85.0258 24.253C85.5618 24.2219 86.1661 24.3393 86.644 24.5775C87.6287 25.0683 88.3982 25.9927 88.7415 27.0345C89.035 27.9258 88.9118 28.6253 88.4935 29.4351L87.5861 28.5852C86.1746 27.3191 84.6567 26.2327 82.8682 25.5711C83.4296 24.8833 84.1313 24.377 85.0258 24.253Z" fill="#FEFEFE"/>
<path d="M91.3025 65.7633L91.6521 65.7167L91.7216 65.7744L91.7145 67.2031L79.3475 68.6748C79.1686 68.6934 78.9585 68.7572 78.7979 68.6748L79.1358 67.7879L91.3025 65.7633Z" fill="#FEFEFE"/>
<path d="M91.2468 68.4103C91.4315 68.3961 91.538 68.3414 91.6849 68.4661L91.6868 69.9944L78.5199 70.9377L78.0853 70.963L77.9883 70.8662C78.0449 70.5733 78.1412 70.2966 78.2349 70.0141L91.2468 68.4103Z" fill="#FEFEFE"/>
<path d="M106.055 94.813C106.44 93.366 107.144 92.1325 108.466 91.3606C109.582 90.7095 110.927 90.4685 112.185 90.8203C113.466 91.1785 114.633 92.2068 115.269 93.3631C115.544 93.8631 115.668 94.3631 115.865 94.8907L115.984 95.7736L111.626 95.7606C111.547 94.8402 111.247 94.2172 110.527 93.6178C110.06 93.2284 109.351 93.0257 108.748 93.0884L108.539 93.117L108.438 93.1304C107.809 93.2262 107.213 93.6844 106.855 94.1932C106.593 94.566 106.408 94.9997 106.358 95.4551C106.33 95.7141 106.361 95.9836 106.312 96.2383C106.18 96.2049 106.082 96.181 105.971 96.0996C105.945 95.6589 105.995 95.2491 106.055 94.813Z" fill="#52579C"/>
<path d="M96.3996 61.6281C96.5201 61.6111 96.5954 61.6023 96.7122 61.6402L96.7118 69.7452L93.1201 69.9554L92.8857 69.9197C92.8075 69.6503 92.8446 69.3123 92.8447 69.0312L92.8466 67.5004L92.8281 62.5394L96.3996 61.6281Z" fill="#B1C7FF"/>
<path d="M84.5094 95.8914C84.5378 95.865 84.5606 95.8311 84.5944 95.812C84.7312 95.7345 88.3498 95.8161 88.7938 95.8182C88.8728 97.3388 88.4086 98.8055 87.3722 99.9409C86.682 100.697 85.8074 101.207 84.82 101.463L84.6933 101.496C83.5887 101.783 82.365 101.512 81.3391 101.076C81.353 100.677 81.373 100.291 81.3002 99.8963L81.2788 99.7765C81.1969 99.3425 81.0199 98.7546 80.7324 98.4101C80.3239 97.5477 79.3211 96.8326 78.4566 96.4823C78.1591 96.3618 77.7946 96.3017 77.5275 96.1281L77.4258 96.0582C78.205 95.9325 79.0679 96.013 79.8571 96.0266L79.9655 96.1699C80.006 96.6221 80.1828 97.0924 80.4801 97.4382C80.8656 97.8865 81.4955 98.1274 82.0744 98.1591C82.7421 98.1957 83.3388 97.966 83.8311 97.512C84.3058 97.0744 84.4864 96.5237 84.5094 95.8914Z" fill="#CCCCDA"/>
<path d="M111.626 95.7606L115.984 95.7736C116.043 97.321 115.526 98.747 114.474 99.8908C113.561 100.884 112.414 101.469 111.053 101.511C110.603 101.525 110.17 101.513 109.732 101.409L109.619 101.384C108.333 101.076 107.288 100.111 106.621 99.0011C106.119 98.1656 105.965 97.3529 105.897 96.3897C106.043 96.2512 106.179 96.2939 106.375 96.2893L106.603 96.7577C106.96 97.4177 107.586 98.021 108.325 98.2278L108.405 98.2485L108.538 98.2816C109.209 98.4047 109.995 98.2048 110.542 97.8132C111.249 97.3071 111.51 96.5848 111.626 95.7606Z" fill="#CCCCDA"/>
<path d="M98.2524 95.7227L102.811 95.7598C102.811 96.3372 102.822 96.892 102.698 97.4589L102.672 97.586C102.384 98.9317 101.545 100.174 100.385 100.921C99.9041 101.232 99.3587 101.445 98.8063 101.586L98.6807 101.619C98.1814 101.75 97.6364 101.744 97.1306 101.656L97.0148 101.638C95.6395 101.408 94.4585 100.54 93.6574 99.4189C92.9325 98.4043 92.4716 97.1776 92.4836 95.9213L93.7122 95.9092C93.7857 96.4264 93.9043 96.9413 94.212 97.3747C94.5255 97.8164 95.0728 98.0956 95.603 98.1649C96.2708 98.2523 96.9038 98.0967 97.4308 97.6726C98.0619 97.1647 98.1667 96.4753 98.2524 95.7227Z" fill="#CCCCDA"/>
<path d="M24.3008 97.5858L24.1135 97.0019C24.0122 96.5318 24.2657 95.9743 24.3191 95.5008C27.0754 95.4792 29.8476 94.6176 32.244 93.2684C32.5435 93.7406 32.8799 94.2369 33.0818 94.7608C33.4762 95.7843 33.5122 96.8509 33.5366 97.9334L33.5181 101.774C32.6282 101.767 31.6018 101.663 30.7236 101.796L30.7265 101.666C30.7395 100.617 30.5216 99.6467 29.7663 98.8782C28.468 97.5568 26.0203 97.6128 24.3008 97.5858Z" fill="#002033"/>
<path d="M92.4844 95.9213C92.4894 95.0706 92.7301 94.2344 93.1583 93.5009C93.911 92.2114 95.0388 91.3151 96.4816 90.9215L96.8638 90.83C98.2443 90.6115 99.6442 90.8865 100.773 91.7242C102.082 92.6955 102.589 94.2066 102.812 95.7598L98.2532 95.7226C98.1675 96.4753 98.0627 97.1647 97.4315 97.6726C96.9046 98.0967 96.2715 98.2523 95.6038 98.1649C95.0736 98.0955 94.5263 97.8163 94.2128 97.3747C93.9051 96.9413 93.7865 96.4263 93.713 95.9092L92.4844 95.9213Z" fill="#52579C"/>
<path d="M93.7129 95.9092C93.7106 95.133 93.8077 94.3515 94.3818 93.7791C94.7838 93.3783 95.2781 93.1448 95.8563 93.1577C96.5465 93.1732 97.1202 93.4388 97.5903 93.9354C98.0496 94.4205 98.2757 95.0597 98.2531 95.7227C98.1674 96.4754 98.0626 97.1648 97.4315 97.6727C96.9045 98.0968 96.2715 98.2524 95.6037 98.165C95.0735 98.0956 94.5262 97.8164 94.2127 97.3748C93.905 96.9414 93.7864 96.4264 93.7129 95.9092Z" fill="#140C9C"/>
<path d="M77.4258 96.0582C77.5413 95.6102 77.636 95.1467 77.8004 94.7139C78.2696 93.4786 79.0748 92.5646 80.1739 91.8424C81.6121 90.8974 83.22 90.5916 84.9063 90.9468C86.3399 91.4012 87.5186 92.3795 88.2051 93.7164C88.5519 94.3917 88.707 95.0684 88.7938 95.8182C88.3498 95.8162 84.7312 95.7346 84.5944 95.812C84.5606 95.8311 84.5378 95.865 84.5094 95.8914C84.4864 96.5237 84.3058 97.0744 83.8311 97.512C83.3388 97.966 82.7421 98.1958 82.0744 98.1592C81.4955 98.1274 80.8657 97.8865 80.4801 97.4382C80.1828 97.0925 80.006 96.6221 79.9655 96.1699L79.8571 96.0267C79.0679 96.013 78.205 95.9326 77.4258 96.0582Z" fill="#52579C"/>
<path d="M79.9661 96.1699C79.9374 95.954 79.9498 95.7343 79.985 95.5195C80.1103 94.7553 80.5228 94.0326 81.1635 93.588C81.6852 93.2259 82.2977 93.1261 82.9149 93.2694C83.4309 93.3891 83.8678 93.7521 84.1416 94.1983C84.4008 94.6207 84.6415 95.3924 84.51 95.8914C84.4869 96.5237 84.3063 97.0744 83.8317 97.512C83.3394 97.9661 82.7427 98.1958 82.075 98.1592C81.496 98.1274 80.8662 97.8865 80.4807 97.4382C80.1834 97.0925 80.0065 96.6221 79.9661 96.1699Z" fill="#140C9C"/>
<path d="M46.6765 97.649C46.5388 96.5908 46.45 95.5579 46.1826 94.5223C46.9115 94.2741 47.4331 93.8885 48.0493 93.4384C49.7904 92.1665 51.1206 90.6921 52.13 88.78C54.1829 92.3028 55.8256 96.0088 58.5696 99.0826C59.5535 100.185 60.6498 101.204 61.9484 101.913L54.0416 101.928C53.1096 101.924 52.0172 102.021 51.1009 101.868L51.1084 99.3297C49.6398 98.4494 48.4329 97.701 46.6765 97.649Z" fill="#002033"/>
<path d="M98.1194 59.1267L102.788 59.1216C103.657 59.1284 104.419 59.1911 105.28 59.093C105.6 59.5534 106.34 59.986 106.828 60.1674C107.576 60.2831 109.931 60.7489 110.665 60.9348C110.647 61.5153 110.791 62.2071 110.897 62.7773C110.98 63.2237 111.069 63.6675 111.113 64.1199C111.153 64.5306 111.016 64.9853 111.113 65.386C111.333 66.2919 110.851 67.7145 111.126 68.6092C111.24 68.9805 111.236 69.0573 111.433 69.3767C112.084 69.6032 113.166 69.7439 113.735 70.1441C113.914 70.2703 114.401 70.404 114.502 70.6046C114.383 70.6917 114.675 70.6927 114.637 70.8339L114.713 70.8984L114.842 70.8662C114.851 70.9609 114.857 70.9157 114.829 71.002L104.24 70.9753C104.945 70.8834 105.711 70.9489 106.426 70.9505L110.537 70.9329C110.631 70.6976 110.565 70.1381 110.564 69.8671L110.492 69.7983L110.063 69.7982L107.078 69.7903L101.346 69.7513C100.256 69.7426 99.0297 69.8591 97.9547 69.7081L97.9355 63.0071C97.8448 62.6814 97.9143 62.3476 97.9125 62.0092C97.9122 61.9506 97.9307 61.7448 97.9124 61.7023L98.1194 59.1267Z" fill="#FEFEFE"/>
<path d="M98.233 59.093C96.0227 59.707 97.1074 61.0884 97.926 61.7023L110.052 62.1628V69.8372H110.512V70.9116L115.117 71.0651C114.134 69.7144 112.303 69.3256 111.586 69.3767C111.586 69.3767 111.791 61.1907 110.666 60.9349C109.54 60.6791 107.289 60.1367 106.675 60.0139C106.061 59.8912 105.6 59.3488 105.447 59.093H98.233Z" fill="#D8315B"/>
<path d="M51.1007 101.868C50.2802 101.78 49.3779 101.85 48.5483 101.848C48.5448 101.239 48.5337 100.83 48.1389 100.331C47.5931 99.6416 46.8205 99.5444 46.0021 99.4497L46.0065 99.4861L46.7455 100.004C47.4074 100.491 47.6455 101.004 47.7716 101.799C47.6918 101.878 38.1223 101.848 37.1701 101.848C37.2157 99.7324 37.2416 97.5581 36.8568 95.4705C36.6989 94.6142 36.4947 93.7473 36.1174 92.9584C35.8248 92.3463 35.4362 91.84 35.0146 91.3122C35.4172 91.0968 35.8198 90.881 36.1827 90.602C37.709 89.4281 38.9455 87.7328 39.5342 85.8934C39.765 85.1724 39.8772 84.4283 39.9732 83.6796L50.0623 82.3329C50.1814 83.7525 49.9832 85.1495 49.3635 86.4391C48.1746 88.9133 46.107 91.1757 43.4164 91.9872C42.9749 92.1202 42.5142 92.2062 42.0556 92.2538C41.8286 92.2774 41.5568 92.2588 41.3436 92.333C42.2847 93.9534 42.4849 95.9397 42.707 97.7738L45.4615 97.6669L46.6763 97.649C48.4328 97.701 49.6396 98.4494 51.1082 99.3297L51.1007 101.868Z" fill="#FEFEFE"/>
<path d="M13.9935 63.7482C14.1645 61.8735 14.4988 59.8045 15.2411 58.0643C16.4658 55.1938 18.82 53.0096 21.6857 51.8419C21.5186 50.682 21.4187 49.6471 21.535 48.4729C22.018 43.5919 26.0751 39.3448 30.9024 38.5545C31.5593 38.4468 32.2381 38.4119 32.9031 38.421C32.9928 38.4223 33.6149 38.483 33.654 38.4592C33.6732 38.4475 33.8386 37.9797 33.8619 37.9232C34.0439 37.4829 34.2745 37.0566 34.5281 36.6536C35.1346 35.6896 35.9309 34.828 36.8161 34.1117C38.5341 32.7213 40.5182 31.6404 42.6154 30.9398C45.2169 30.0709 48.0577 29.736 50.786 29.5653C55.2744 29.2847 59.7717 29.4951 64.2424 29.956C61.0382 33.3387 57.6259 36.3395 53.8923 39.1241L52.4025 40.2237C52.1331 40.4242 51.8336 40.6867 51.5404 40.8433C51.2789 40.9829 50.8523 40.9662 50.5603 40.9863L48.9129 41.1468C46.8419 41.3878 44.7484 41.6941 42.7161 42.166C36.143 43.6925 29.7583 46.4464 25.1962 51.5731C23.4208 53.5683 21.9989 55.8564 20.8406 58.2566C19.0508 61.9656 18.0978 65.9397 18.2078 70.0643L18.8428 75.8692C18.1472 75.1299 17.391 74.3972 16.7781 73.5878C14.5975 70.7088 13.9775 67.2774 13.9935 63.7482Z" fill="#B1C7FF"/>
<path d="M88.6607 48.381C88.5514 49.0055 88.3125 49.6998 87.8816 50.1754C87.404 50.7025 86.8273 50.8907 86.1507 51.0145C84.162 51.3786 81.9107 50.9416 80.0138 50.3266C78.865 49.9542 77.6662 49.3098 76.4845 49.1022C75.5444 48.9372 74.5677 49.2137 73.6255 49.2676C71.1627 49.4085 68.6648 48.5064 66.8328 46.8609C64.6996 44.945 63.8175 42.214 63.6974 39.4243C63.5944 37.0321 64.3013 34.4377 65.6182 32.4399C66.0457 31.7914 66.5564 31.2282 67.0822 30.6604C66.6513 29.5904 66.0809 28.5793 65.8132 27.45L65.785 27.3283C65.7248 27.0785 65.6872 26.854 65.6787 26.5974C65.6347 25.2676 65.9751 24.1396 66.91 23.1691C67.6886 22.3606 68.8629 21.8568 69.9877 21.8562C70.945 21.8558 71.8626 22.2269 72.532 22.9101C73.4955 23.8937 73.5578 24.9284 73.5338 26.2072C74.1383 26.0625 74.747 25.9107 75.3675 25.8547C77.3956 25.6721 79.5022 26.053 81.422 26.7091C83.6635 27.4754 85.8346 28.9458 87.4187 30.6981C87.9788 31.3177 88.509 31.9974 88.875 32.7524C89.2185 33.4615 89.5561 34.2978 89.5692 35.0946C89.5845 36.0141 89.2153 36.9416 88.9183 37.7958L88.1434 36.8021C87.8838 36.8519 87.8151 36.8663 87.613 37.0319C88.7333 38.5025 90.0061 39.996 90.5155 41.8016C90.7545 42.2592 90.9311 42.6957 90.7674 43.2171L90.7062 43.3911L90.6022 43.7081C90.6576 44.878 90.8278 46.1294 89.9663 47.0612C89.7416 47.3044 89.4091 47.6877 89.0605 47.706L88.9488 47.7086L88.6607 48.381Z" fill="#FEFEFE"/>
<path d="M87.5721 33.076C87.8322 33.0617 88.0918 33.0866 88.3373 33.1797C88.9259 33.4027 89.1422 34.0177 89.3952 34.5426C89.1563 34.3273 88.8806 34.0243 88.5809 33.8991C88.229 33.7521 87.8396 33.8368 87.4991 33.966L87.4151 33.9995C87.2074 34.1109 86.9773 34.2648 86.8301 34.4504C86.6977 34.6175 86.56 35.0934 86.3997 35.1629C86.3626 35.0808 86.3583 35.0782 86.3302 34.9762C86.2181 34.5702 86.2423 34.1988 86.4614 33.8354C86.7351 33.3819 87.0799 33.2103 87.5721 33.076Z" fill="#140C9C"/>
<path d="M77.5689 32.6288L77.8078 32.6184C78.4363 32.6274 79.0492 32.7935 79.4917 33.2702C80.0305 33.8508 79.9298 34.4837 79.9024 35.2094C79.5135 34.3874 79.224 33.7704 78.3125 33.4131L78.2373 33.3846L78.1687 33.3628C77.6481 33.2276 76.9742 33.2337 76.4971 33.4976C76.1125 33.7102 75.7275 34.1184 75.6134 34.5501L75.5834 34.6739L75.5068 34.6719C75.4498 34.2885 75.6522 33.8392 75.8671 33.528C76.2836 32.9247 76.887 32.753 77.5689 32.6288Z" fill="#140C9C"/>
<path d="M87.6128 37.0321L86.8506 35.9396L87.0073 35.1269C87.0827 34.8707 87.1958 34.7099 87.4465 34.596C87.6994 34.481 88.0101 34.4413 88.2715 34.55C88.5752 34.6762 88.8363 34.9304 88.9396 35.2453C89.0517 35.5862 88.9979 35.967 88.833 36.2822C88.6835 36.568 88.5023 36.6907 88.2011 36.7849L88.1433 36.8022C87.8836 36.852 87.8149 36.8664 87.6128 37.0321Z" fill="#020E76" fill-opacity="0.6"/>
<path d="M87.4523 35.2092C87.5545 35.2412 87.6549 35.2928 87.7534 35.3354C87.8512 35.5775 87.779 35.6726 87.7072 35.9183L87.6559 35.915C87.4392 35.8816 87.4383 35.8813 87.3167 35.7071C87.3056 35.5093 87.3714 35.383 87.4523 35.2092Z" fill="#FEFEFE"/>
<path d="M76.5202 34.3683C76.9123 34.0792 77.2512 33.8908 77.7625 33.9788C78.0627 34.0305 78.3351 34.2494 78.5635 34.4392C78.7135 34.6448 78.8718 34.8795 78.9523 35.1217C79.029 35.3523 79.0178 35.6006 78.9064 35.8186C78.7098 36.2032 78.262 36.4302 77.8626 36.5408C77.4304 36.6606 77.0374 36.7191 76.6345 36.4768C76.3595 36.3113 76.1268 36.0177 76.0643 35.699C75.9596 35.1653 76.2254 34.7787 76.5202 34.3683Z" fill="#140C9C"/>
<path d="M76.8311 35.6559C76.9224 35.6122 77.371 35.4473 77.4087 35.3946C77.5202 35.2384 77.5161 34.9653 77.6428 34.79C77.7294 34.67 77.8997 34.588 78.0497 34.5833C78.2682 34.5764 78.3445 34.71 78.4875 34.8489C78.5382 35.1262 78.5659 35.3343 78.4979 35.6104C78.3252 35.855 78.1754 36.0291 77.8682 36.086C77.5925 36.1372 77.3066 36.081 77.0538 35.9698C76.9654 35.8617 76.8959 35.7799 76.8311 35.6559Z" fill="#002033"/>
<path d="M76.5205 34.3683C76.9126 34.0792 77.2515 33.8908 77.7628 33.9788C78.063 34.0305 78.3354 34.2494 78.5638 34.4392L78.4875 34.8489C78.3445 34.71 78.2682 34.5764 78.0497 34.5833C77.8997 34.588 77.7294 34.67 77.6428 34.79C77.516 34.9653 77.5202 35.2384 77.4087 35.3946C77.371 35.4473 76.9224 35.6122 76.831 35.6559L76.8451 35.4894L76.6532 35.2431C76.6098 34.9727 76.6801 34.9138 76.8044 34.6767C76.698 34.6299 76.5958 34.4603 76.5205 34.3683Z" fill="#020E76" fill-opacity="0.6"/>
<path d="M76.8047 34.6768C77.0318 34.7612 77.0841 34.7649 77.2335 34.9659C77.212 35.1493 77.204 35.2499 77.0541 35.3734C76.9953 35.4217 76.9124 35.4564 76.8454 35.4894L76.6535 35.2432C76.6101 34.9727 76.6804 34.9138 76.8047 34.6768Z" fill="#FEFEFE"/>
<path d="M70.0497 25.1536L70.796 25.2174C71.4474 25.9343 71.9666 26.9813 72.3156 27.8779C71.9282 28.6384 71.029 29.2744 70.407 29.8512C70.2564 30.0073 70.102 30.1431 69.9312 30.2767C69.8182 30.2763 69.7864 30.2955 69.6891 30.2241C69.5781 30.1425 68.4233 27.3271 68.3788 27.0652C68.3175 26.7042 68.4564 26.2062 68.6744 25.9119C69.0299 25.4319 69.4796 25.2505 70.0497 25.1536Z" fill="#140C9C"/>
<path d="M88.6611 48.381L87.254 47.9354C86.5558 48.2123 85.8642 48.4013 85.1094 48.4255C83.2616 48.485 81.1965 48.0058 79.8232 46.7045L80.1699 46.876C81.5831 47.5541 83.4342 47.8296 84.9956 47.7237C85.458 47.6924 86.0107 47.6385 86.4459 47.4697C86.6374 47.3953 86.7998 47.2835 86.8715 47.0829C86.9326 46.9123 87.1286 46.0363 87.0649 45.8863C87.0028 45.74 86.5237 45.4735 86.383 45.3767C85.795 44.9717 85.1371 44.4766 84.8693 43.7878C84.6919 43.3316 84.6849 42.8593 84.8922 42.4101C85.0784 42.0065 85.3638 41.7894 85.7761 41.649C87.2044 41.1625 89.1553 41.1409 90.5159 41.8016C90.7549 42.2593 90.9315 42.6957 90.7678 43.2172L90.7065 43.3912L90.6025 43.7082C90.6579 44.878 90.8281 46.1294 89.9666 47.0613C89.7419 47.3044 89.4095 47.6878 89.0608 47.7061L88.9492 47.7086L88.6611 48.381Z" fill="#002033"/>
<path d="M90.6023 43.7083C90.6577 44.8781 90.8279 46.1295 89.9664 47.0614C89.7417 47.3045 89.4093 47.6878 89.0606 47.7062L88.949 47.7087C88.6245 47.5749 88.1247 47.5462 87.8553 47.3327C87.7639 47.2604 87.745 47.239 87.7309 47.1208C87.7112 46.9545 87.8161 46.2222 87.9042 46.0997C88.0437 45.9057 88.6561 45.6518 88.8868 45.4676C89.4798 44.994 90.0708 44.4027 90.5324 43.8005L90.6023 43.7083Z" fill="#FEFEFE"/>
<path d="M76.9126 73.546L77.2561 72.478L104.253 70.9753L114.843 71.002C117.155 71.4215 119.045 73.1392 120.349 75.0173C120.966 75.9057 121.454 76.8764 121.865 77.8748L122.047 78.3105L122.11 78.336C122.187 78.4911 122.257 78.638 122.286 78.81C122.311 78.9531 122.331 79.1486 122.401 79.2773L122.465 79.3742C122.468 79.4888 122.475 79.5815 122.506 79.693L122.549 79.8621L122.592 80.0835C122.632 80.2041 122.628 80.2889 122.657 80.4052C122.698 80.5658 122.715 80.6567 122.719 80.8242C122.828 80.9892 122.742 81.0268 122.784 81.1787C122.835 81.3625 122.861 81.459 122.833 81.6533C122.817 81.7605 122.791 81.8187 122.851 81.9174C122.941 82.0671 123.046 82.2136 123.109 82.3786C123.182 82.5696 123.152 82.7307 123.299 82.8867L123.396 82.8222C123.414 82.723 123.43 82.5893 123.477 82.4999C123.555 82.3507 123.581 82.2215 123.638 82.0649C123.703 81.8861 123.673 82.0189 123.702 81.8755C123.778 81.4958 123.913 81.0844 124.024 80.7114C124.066 80.5716 124.091 80.4109 124.137 80.2763C124.179 80.1533 124.184 80.0576 124.218 79.9379L124.33 79.5029C124.364 79.3906 124.366 79.2871 124.395 79.1806L124.476 78.8422C124.504 78.7413 124.548 78.6771 124.556 78.5683L124.557 78.4716C124.579 78.3649 124.636 78.3035 124.646 78.1838C124.655 78.0658 124.682 77.972 124.717 77.8593L124.817 77.8044L123.976 81.3129C123.819 81.8647 123.603 82.4082 123.46 82.9617C123.345 83.4082 123.379 83.8847 123.27 84.3403C123.053 85.2458 122.7 86.0718 122.425 86.9519C122.375 87.2673 121.972 88.0321 122.059 88.2591L118.306 88.2949L72.8916 88.2903L74.8582 80.0411C74.8998 79.8962 75.022 79.2684 75.1114 79.1746C75.1118 79.1743 75.3426 79.1777 75.3542 79.1778L90.1492 79.2131L94.8345 79.23C95.7447 79.2387 96.6941 79.3055 97.6011 79.2354C97.8232 79.2181 98.0207 79.1853 98.1978 79.0353C98.3662 78.8926 98.4935 78.6954 98.505 78.4716C98.5189 78.2003 98.4527 78.0203 98.2611 77.8271C98.1064 77.6709 97.8293 77.5677 97.6147 77.547C96.8496 77.4731 96.0106 77.5536 95.2412 77.5692L91.0181 77.626L75.4852 77.8098L76.9126 73.546Z" fill="#D8315B"/>
<path d="M104.63 80.2555C105.635 80.171 106.609 80.2973 107.482 80.8408C108.196 81.2859 108.639 81.911 108.818 82.732C109.011 83.6135 108.794 84.6824 108.292 85.4273C107.773 86.1972 106.957 86.676 106.064 86.87C105.238 87.0089 104.317 86.8472 103.594 86.4234C102.827 85.9743 102.151 85.142 101.933 84.2748C101.73 83.4689 101.836 82.4941 102.278 81.789C102.808 80.9424 103.679 80.4649 104.63 80.2555Z" fill="#140C9C"/>
<path d="M106.327 80.7708C106.811 80.7421 107.167 80.8212 107.578 81.0928C108.069 81.4173 108.496 81.9997 108.617 82.5787C108.754 83.2396 108.744 84.0239 108.344 84.5947C107.99 85.1003 107.479 85.3233 106.893 85.4414C106.591 85.4243 106.296 85.4169 106.017 85.2859C105.35 84.9725 104.891 84.385 104.652 83.6973C104.446 83.1052 104.511 82.4029 104.806 81.8505C105.135 81.2344 105.691 80.9709 106.327 80.7708Z" fill="#FEFEFE"/>
<path d="M122.047 78.3105L122.11 78.3361C122.187 78.4911 122.257 78.6381 122.286 78.81C122.311 78.9531 122.331 79.1487 122.4 79.2773L122.465 79.3743C122.468 79.4889 122.475 79.5815 122.505 79.693L122.549 79.8622L122.592 80.0835C122.631 80.2042 122.627 80.289 122.657 80.4053C122.698 80.5659 122.715 80.6568 122.719 80.8242C122.828 80.9892 122.741 81.0268 122.784 81.1787C122.835 81.3625 122.861 81.4591 122.832 81.6533C122.816 81.7606 122.791 81.8187 122.851 81.9175C122.941 82.0671 123.046 82.2137 123.109 82.3787C123.181 82.5696 123.152 82.7307 123.299 82.8867L123.396 82.8223C123.414 82.723 123.429 82.5893 123.477 82.5C123.555 82.3507 123.58 82.2215 123.637 82.0649C123.702 81.8861 123.673 82.0189 123.702 81.8756C123.778 81.4958 123.913 81.0845 124.024 80.7114C124.066 80.5717 124.091 80.4109 124.137 80.2764C124.179 80.1534 124.183 80.0576 124.217 79.938L124.33 79.5029C124.364 79.3906 124.366 79.2871 124.395 79.1807L124.475 78.8423C124.504 78.7413 124.547 78.6771 124.556 78.5683L124.556 78.4717C124.579 78.3649 124.635 78.3036 124.645 78.1838C124.655 78.0659 124.682 77.972 124.717 77.8594L124.817 77.8044L123.976 81.3129C123.819 81.8647 123.602 82.4082 123.46 82.9617C123.345 83.4083 123.379 83.8847 123.27 84.3404C123.052 85.2458 122.7 86.0719 122.425 86.9519L122.421 86.8892C122.401 86.4114 122.6 85.8982 122.733 85.4419C121.88 86.3026 120.905 86.9262 119.648 86.943L119.217 86.9332C119.152 86.8934 119.189 86.9092 119.096 86.8905C118.405 86.7511 117.808 86.4333 117.312 85.9267C116.623 85.2233 116.309 84.4177 116.331 83.442C116.351 82.5803 116.772 81.7209 117.409 81.1447C118.058 80.5574 118.964 80.2078 119.844 80.2583C121.018 80.3256 122.009 80.8617 122.789 81.7204C122.662 80.556 122.353 79.4369 122.047 78.3105Z" fill="#140C9C"/>
<path d="M120.594 81.0287C120.981 80.9789 121.381 80.9641 121.749 81.1123C122.288 81.3298 122.759 81.8234 122.966 82.3637C123.207 82.992 123.239 83.7209 122.935 84.3338C122.659 84.8902 122.166 85.1363 121.604 85.3181C121.221 85.3495 120.85 85.3216 120.49 85.1783C119.934 84.9569 119.481 84.5007 119.25 83.9493C119.006 83.3674 118.95 82.834 119.215 82.2414C119.489 81.6287 119.992 81.2743 120.594 81.0287Z" fill="#FEFEFE"/>
<path d="M76.9121 73.546L77.2556 72.478L104.253 70.9753L114.842 71.002C117.154 71.4215 119.044 73.1392 120.349 75.0173C120.965 75.9057 121.453 76.8764 121.865 77.8748C121.806 77.9091 121.796 77.9198 121.72 77.9363C121.341 78.0185 120.756 77.9378 120.36 77.9361L115.885 77.8857L105.848 77.8413L101.614 77.8441C101.583 77.8442 101.546 77.8632 101.522 77.8445C101.495 77.8236 101.404 77.4164 101.388 77.3575C101.27 76.9237 101.141 76.5093 100.947 76.103C100.525 75.22 99.7876 74.4623 99.0422 73.8398C98.0615 73.0207 96.9526 72.4759 95.6806 72.2861C93.7573 71.9991 91.5918 72.4253 89.6542 72.5663L76.9121 73.546Z" fill="#FEFEFE"/>
<path d="M100.331 72.5718L115.948 72.5596C116.632 73.4319 117.326 74.3198 117.772 75.344C117.872 75.5739 118.014 75.8348 118.015 76.087C117.809 76.1078 117.638 76.1078 117.433 76.087C117.026 75.1273 116.411 74.3191 115.744 73.5283L115.677 73.4444C115.673 73.4399 115.513 73.3123 115.5 73.3063C115.411 73.2656 115.031 73.3067 114.921 73.3068L113.055 73.3146L102.473 73.3535C103.287 74.216 103.815 75.168 104.402 76.1854C104.262 76.195 103.885 76.2677 103.77 76.2289C103.654 76.1897 103.474 75.7844 103.413 75.6765C103.217 75.3269 102.994 74.9924 102.749 74.6747C102.059 73.7808 101.314 73.1203 100.331 72.5718Z" fill="#2732CE"/>
<path d="M30.7235 101.796C30.4935 101.887 30.1256 101.843 29.8753 101.844L27.8168 101.855L27.7809 101.362C27.7099 100.716 27.33 100.087 26.8128 99.6973C26.4843 99.4499 25.9383 99.2575 25.5238 99.3168L25.487 99.4189L26.0859 99.881C26.6891 100.395 26.8998 101.058 26.96 101.825L15.9801 101.8L16.1984 96.6529C16.2755 94.4696 16.3208 92.3298 15.7666 90.1978C16.5929 89.8659 17.3616 89.5151 18.0716 88.9688C21.3303 86.4616 22.5794 81.7024 22.4813 77.7569C22.4307 75.7155 22.0737 73.7349 21.889 71.71C21.7493 70.1779 21.746 68.5427 21.9153 67.013C22.3712 62.892 24.2529 58.8437 26.6765 55.5184C29.0443 52.2696 32.1193 49.5916 35.7767 47.8928C39.4442 46.1895 43.4987 45.422 47.4625 44.7853C46.7804 45.6638 45.8707 46.4094 45.1122 47.2319C51.5559 44.3139 57.1401 40.1005 62.4836 35.5266C61.9199 37.487 61.558 39.4595 61.7007 41.5077C61.8159 43.1619 62.2517 44.8317 62.8686 46.3672C63.4592 47.8379 64.2674 49.2785 65.2839 50.4984C67.4175 53.0594 70.1832 54.7601 72.8689 56.6607C74.1758 57.5856 75.3977 58.5507 76.6084 59.5996L80.1706 52.4877C80.1005 54.1336 79.8544 55.7724 79.5887 57.3968C79.26 59.407 78.8837 61.4163 78.348 63.3826C77.486 66.5466 76.3146 69.5976 75.1205 72.6465C73.5201 76.7324 72.0029 80.7993 71.2669 85.1425C70.6783 88.6165 70.5839 91.9927 72.0177 95.2704C70.3123 94.4877 69.226 92.872 68.3856 91.2622C66.6678 87.9715 66.1331 84.0953 65.7411 80.4477C65.7215 80.2653 65.5409 79.1213 65.5936 79.0323C65.6237 78.9815 65.8477 78.8526 65.9047 78.8128L66.9349 78.1118C67.3362 77.8278 67.739 77.5174 68.1018 77.185C70.5725 74.9207 72.4165 72.0969 73.6224 68.9731C74.1101 67.71 74.4749 66.4164 74.8829 65.1276L73.3434 67.4424C71.1673 70.4017 68.2238 73.2282 64.8087 74.678C64.6872 73.1781 64.7774 71.6048 64.8969 70.1066C65.0479 68.213 65.28 66.2887 65.7243 64.4407C64.9931 65.8149 64.4639 67.2894 64.0077 68.7745C63.2673 71.1843 62.7385 73.7143 62.6526 76.2402C62.517 80.2325 63.2393 84.3862 64.4393 88.1879C64.7849 89.2827 65.211 90.3365 65.6625 91.3907C66.4118 93.1405 67.3448 95.0368 69.0207 96.078C69.7707 96.544 70.6044 96.787 71.4727 96.9151C73.109 97.1566 74.7923 97.0309 76.4353 97.2391C77.4312 97.3653 78.386 97.6834 79.0806 98.4394C79.9132 99.3456 80.1367 100.485 80.0964 101.667C79.4728 101.664 78.8051 101.711 78.1882 101.631C78.3333 100.851 78.3082 100.226 77.8275 99.5523C77.1649 98.6227 76.0637 98.4367 75.0222 98.2429L75.5072 98.5722C76.5499 99.3829 76.7698 100.418 76.9106 101.66L74.3673 101.653C74.3453 100.901 74.3176 100.114 73.8448 99.4833C73.139 98.5417 71.9822 98.3978 70.906 98.219C72.3442 99.1085 72.808 100.065 73.2036 101.643L66.0978 101.705C65.4625 101.027 64.689 100.44 63.9879 99.8289C62.9651 98.9366 62.0106 97.9992 61.1341 96.962C59.465 94.9867 58.2029 92.7557 56.9761 90.4921C54.2919 85.5394 51.865 80.4475 50.7251 74.8933C50.159 72.1347 49.8868 69.0602 50.2891 66.257C50.5847 64.1969 51.2719 62.1458 52.1754 60.2736C52.9185 58.7339 53.8233 57.3171 54.7629 55.8953C53.8773 56.5203 52.9755 57.5709 52.2891 58.41C48.9507 62.4913 46.8483 67.367 46.9137 72.6996C46.9294 73.988 47.142 75.2283 47.2701 76.5037L41.2206 76.9827C41.0801 75.5136 40.8542 74.0429 40.3191 72.6592C39.7785 71.2612 39.033 70.0348 37.6256 69.4048C38.8988 71.6352 39.1419 74.5331 38.8497 77.0469C38.3207 81.5987 35.9248 85.9511 32.3064 88.7761C29.0543 91.3153 25.3575 92.5773 21.2271 92.0778L21.5814 92.3971C22.8327 93.6337 22.8619 95.9215 22.886 97.5719L24.3007 97.5857C26.0202 97.6128 28.4679 97.5567 29.7662 98.8781C30.5215 99.6466 30.7394 100.617 30.7264 101.666L30.7235 101.796Z" fill="#FEFEFE"/>
<path d="M100.951 67.4152V64.2196L107.318 64.4489L107.261 67.5466L100.951 67.4152Z" stroke="#B1C7FF" stroke-width="3"/>
<defs>
<linearGradient id="paint0_linear_987_343" x1="26.8101" y1="20.0351" x2="126.179" y2="62.5197" gradientUnits="userSpaceOnUse">
<stop stop-color="#041449"/>
<stop offset="1" stop-color="#1814B3"/>
</linearGradient>
</defs>
</svg>
